<?xml version="1.0" encoding="UTF-8"?>
<svg xmlns="http://www.w3.org/2000/svg" viewBox="0 0 700 700">
  <defs>
    <style>
      .cls-1 {
        fill: #a75420;
      }

      .cls-2 {
        fill: #d0edfc;
      }

      .cls-3 {
        fill: #eac2ab;
      }

      .cls-4 {
        fill: #c6642a;
      }
    </style>
  </defs>
  <g id="Layer_7" data-name="Layer 7">
    <path class="cls-4" d="M505.22,259.18c-19.79-11.89-41.4-18-64.23-20.78-18.44-2.21-37.51-3.64-54.5-10.4-20.05-7.73-37.84-22.67-58.05-30.3-40.38-16.38-88.04-5.55-122.2,20.7-23.9,18.18-41.33,44.42-46.07,74-1.23,7.22-1.68,14.5-1.77,21.79.37,3.1.4,6.2.09,9.3.11.97.19,1.95.24,2.93.05,1.15.02,2.32-.07,3.5.07,1.81.14,3.62.21,5.43.71,15.28.46,30.5-1.68,45.63-3.54,23.63-7.66,47.57-4.31,71.48,1.8,14.6,6.35,29.14,15.15,41.07,11.11,15.19,27.97,26.18,44.29,35.82,8.02,4.62,16.16,9.17,24.82,12.44l.11.04c2.94,1.12,5.94,2.11,8.97,3.01,24.41,6.57,49.58,13.36,74.55,16.62,25.89,3.14,52.57,1.99,77.8-4.86,33.91-8.46,59.81-32.92,80.68-60.24,29.61-38.16,55.74-79.92,67.43-126.18,13.03-48.07,2.05-84.63-41.46-111.02Z"/>
  </g>
  <g id="Layer_2" data-name="Layer 2">
    <path class="cls-2" d="M560.6,536.14c-20.31-43-66.7-52.74-100.49-49.04-21.12,2.31-42.36,3.37-61.35,13.52-18.28,9.77-35.44,20.65-53.69,30.5-15.19,8.2-21.51,15.05-36.38,16.43-5.08.47-9.88-.46-19.04-7.42-9.3-7.06-13.38-11.83-15.4-24.16-6.98-42.65,1.38-74.72,29.82-92.25,35.88-22.12,78.43-24.14,117.58-35.89,31.1-9.33,83.84-26.14,83.69-72.24-.06-18.92-16.19-46.08-31.53-54.26-16.02-8.55-45.66-7.93-61.8-6.43-20.89,1.94-34.53-1.15-55.7-5.15-19.4-3.66-31.5-38.86-50.8-43.56-18.88-4.6-33.33-2.9-51.3,3.2-17.89,6.07-37.03,43.45-50.95,57.43-12.27,12.32-30.91,15.86-43.35,27.42-.23.21-.36.51-.37.83-.02.51-.05,1.02-.1,1.52-.46,4.37-.89,8.82-1.13,13.11,0,0,0,0,0,0,.1,1.94.17,3.87.22,5.81.1,1.13.16,2.26.16,3.39.01.33-.02.64-.08.92,0,.67.02,1.34.02,2.01.09.05.2.09.33.13,12.98-20.74,33.4-26.31,45.89-30.8,35.74-12.84,38.47-68.17,78.56-66.27,18.62.88,29.93,38.44,48.17,43.98,19.74,5.99,39.3,9.65,59.3,9.87,19.11.21,36.67-8.31,55.69-8.47,8.02-.07,17.81,1.94,25.09,7.29,6.96,5.11,15.59,19.2,17.23,28.36,8.6,48.19-48.43,64.36-77.39,72.19-38.4,10.38-79.44,13.7-114.17,35.75-27.73,17.6-57.58,51.09-58.56,91.13-.52,21.17,7.38,32.93,23.75,45.22,14.68,11.01,37.47,22,51.4,13.02,36.98-23.84,56.64-43.49,101.5-54.67,20.02-4.99,32.58-5.01,53.14-6.39,18.6-1.25,47.14-2.05,64.13,10.64,7.3,5.45,13.07,11.42,17.3,20.37,3.3,6.99,13.89,10.01,10.58,3Z"/>
    <g>
      <circle class="cls-3" cx="339.24" cy="387.76" r="124.54"/>
      <circle class="cls-3" cx="326.59" cy="392.82" r="124.54"/>
      <path class="cls-3" d="M207.92,361.08c-3.99,15.01-7.06,31.06-4.14,46.74,6.15,28.78,26.77,58.42,44.22,75.42,33.11,27.39,87.42,29.54,126.1,23.69,13.44-2.4,24.51-4.51,35.3-11.54,26.77-19.46,61.21-72.8,56.83-117.37-7.94-47.75-44.55-86.38-86.44-107.97-9.43-4.77-19.2-9.82-29.66-10.66-24.1-2.49-74.71,14.75-102.39,36.7-12.66,9.44-21.01,22.62-28.14,36.58-4.63,9.06-8.83,18.4-11.6,28.19l-.06.23ZM224.16,340.49c38.53-83.2,148.9-92.93,205.56-23.28,9.49,12.3,18.55,25.43,22.71,40.59,6.95,27.09,3.88,56.42-6.54,82.23-10.14,25.16-30.92,46.39-57.02,54.33-9.2,2.84-18.79,3.7-28.4,4.12-13.72.53-28.45.74-42.72-.72-13.33-1.35-27.28-4.09-39.28-8.31-57.28-21.03-79.59-95.57-54.4-148.75l.1-.23Z"/>
      <path class="cls-3" d="M414.59,490.35c12.24-9.55,24.38-20.5,31.52-34.76,12.48-26.66,13.94-62.73,10.29-86.81-9.86-41.82-51.85-76.33-86.22-95.02-12.16-6.2-22.26-11.2-35.1-12.12-33.09-.65-92.75,21.07-116.17,59.25-22.5,42.86-16.65,95.76,3.71,138.26,4.64,9.49,9.38,19.42,17.21,26.41,17.71,16.53,68.45,33.35,103.78,32.57,15.79.12,30.4-5.34,44.52-12.17,9.16-4.42,18.15-9.33,26.27-15.46l.19-.14ZM389.21,496.96c-80.95,43.06-174.8-15.83-177.92-105.56-.14-15.53.57-31.47,6.41-46.07,10.81-25.79,30.97-47.32,54.87-61.6,23.27-13.94,52.66-18.31,78.26-8.88,9.04,3.29,17.21,8.39,25.13,13.86,11.26,7.86,23.12,16.59,33.62,26.37,9.81,9.13,19.28,19.73,26.3,30.34,32.96,51.35,5.74,124.24-46.45,151.42l-.22.12Z"/>
    </g>
    <path class="cls-1" d="M339.04,400.02c6.82,5.45,15.25,8.37,23.68,13.07,7.8,4.35,15.21,9.48,22.87,14.16,4.2,2.57,8.62,5.44,13.55,5.9.85.08-.53-2.8-2.11-3.41-8.46-3.3-12.82-6.72-20.13-11.31-7.54-4.74-15.46-8.24-23.28-12.5-4.41-2.41-8.89-5.02-13.47-6.93-2.6-1.08-1.49.71-1.11,1.02Z"/>
    <path class="cls-1" d="M339.24,393.16c3.45-7.49,4.11-15.84,6.44-24.61,2.16-8.12,5.17-16.07,7.68-24.13,1.38-4.42,2.99-9.12,2.19-13.71-.14-.8-2.52,1.14-2.71,2.72-1,8.47-3.15,13.24-5.66,20.97-2.6,7.98-3.93,16-6,24.11-1.17,4.58-2.53,9.27-3.18,13.88-.37,2.62,1.05,1.19,1.25.76Z"/>
    <path class="cls-1" d="M331.16,397.97c-8.93.99-17.02,5.14-26.48,7.93-8.76,2.58-18.1,5.92-27.01,8.13-4.89,1.22-9.92.72-13.68,4.1-.65.59,2.53,1.74,4.1,1.02,8.41-3.88,14.06-4.57,22.66-6.59,8.88-2.09,17.06-5.41,25.77-8.07,4.91-1.5,10.13-2.7,14.67-4.9,7.03-3.41.48-1.68-.02-1.62Z"/>
  </g>
</svg>