<svg viewBox="0 0 512 489" xmlns="http://www.w3.org/2000/svg"><path fill="#FEFBF8" opacity=".843" d="m207.5 61 2.5.5v8l9 108-1 10 2 7-1 8h1l.5-3.5.5 4.5-1 17 1 6.5 6.5 1h2l12 6 5.5-4.5 2-4.5 3-1.5q-1.12-3.33 1.5-2.5l3-4 2.5-1.5 7.5-10.5q3.33 1.13 2.5-1.5l8-8V193l5-2.5 1.5-1.5 5-6 2.5-1.5-.5-1.5 7.5-5.5 1.5-1.5 3.5-2 1.5-4 2.5-.5 2-3 18-15 .5-1.5 1 1 5-5 35-26 10-1 5.5 3.5-.5 2.5-1-1-14 14-31.5 29.5.5 1.5-2-1-3.5 5-12 9.5.5 1.5-1-1-9 9-2.5 1.5.5 1.5-2.5.5q2.75 1.75-1.5 3.5l-1-1-7 7-2.5 1.5.5 1.5-1-1-3.5 3.5.5 1.5-2-1-1.5 3-7 5.5.5 1.5q-1.75-2.75-3.5 1.5l-.5 1.5-1-1-5.5 5.5.5 1.5-1-1-3.5 3.5-.5 1.5-1-1-10.5 10.5 2.5 4.5 2 1 1.5-.5-1 1 5 5 1.5 2.5 1.5.5 1 3 .5 1.5 8-2 30-1q1.5-3.5 8-2l2 1 4-1 18 1 2-1 2 1 3-1h2l6 1h31l56 5 9.5 6-4.5 9-1.5 1.5-3 2 2-3-83.5-1.5-9.5-1-.5 2-.5-2-23.5 1v-2l-38 1v-1l2.5-.5-19-.5 1 3.5h-2l-3 7 .5 1.5-1.5-.5-3 4 .5 1.5-1-1-3 3-2.5 1.5.5 1.5 1.5-.5.5 2.5 3 2 2.5.5-1 1 7.5 7.5 1.5-.5-1 1 3.5 3.5 2.5.5-1 1 5 5 1.5 1.5 2.5 4 3 1.5 5.5 7.5 1.5.5.5 2.5 1.5-.5-1 1 3 3 .5 1.5 1.5-.5-1 1 3 3 6.5 9.5 1.5-.5v2l2.5 4.5 1.5-.5v2q17.25 24.75 29.5 54.5l1.5-.5-3.5 4.5-11 1v-1l7.5-.5-36-45.5-2-1.5-13.5-16.5-1.5.5q2.75-1.75-1.5-3.5l-2.5-1.5 1-1-3-3-2.5-3.5-1.5.5v-2l-5.5-7.5-2.5 1 1-2.5-14.5-18.5-1.5.5 1-2-5.5-6.5-1.5.5-1-3-1.5-2.5-3.5 2-.5 2-2-1-2 3-3-1-6.5 1.5 2 1-1.5.5-4-1-3.5.5.5-1.5-7.5-1-3 16.5 1 2h-2l-1 9 .5 1.5-1.5-.5-1 7 .5 1.5-1.5-.5-19 86-4 8-9 37-3.5 3.5-.5-1.5.5-1.5-1.5-.5 1-3-1-2v-2l1-21v-2l1-29 12-51v-2l2-5 1-3 4-13 1-3 2-6-.5-1.5 1.5-1.5-.5-1.5q2.63.83 1.5-2.5l3-7-.5-1.5q2.63.83 1.5-2.5l3-6-.5-1.5 1.5-.5-.5-1.5q2.63.83 1.5-2.5l1-2-4-2 .5-1.5-1.5-1.5-5-6 .5-1.5-2.5-1.5v-2l-2-7.5-10 1.5.5 1.5-4-1-13.5 3-.5 2-4-1-4 2h-2l-7.5 1-.5 2-4-1L69 301l1 3.5-2-1-.5-1.5h-7l-8 1-6 3H34l6.5-8 6.5-2q-1.31-3.33 3.5-2l17-9 15-5 40-10 12.5-1 1.5-2 4 1 29-5 6 1 12.5-1 1-8.5-2.5-3.5-8-4-1.5.5.5-1.5-2 1-1-3-6-3-1.5.5-.5-2.5-8-5-1.5.5.5-1.5-6-4-1.5.5-1.5-2.5-5-3-1.5.5-.5-2.5-1.5.5.5-1.5-2-1-1.5.5q2.75-1.75-1.5-3.5l-2 1-2-4-6.5-3.5-.5-2.5Q99.58 189.42 79 166.5l3-.5 1 4 5.5 3 1.5-1.5-1.5-3.5-1.5.5 3.5-6.5 2.5 1-2-4.5 2.5 1.5 3 2 33 27 6.5 3 2.5 4 4 3 2.5.5 2.5 3.5 1.5-.5.5 2.5 3 2q2.75 5.42 5.5 3.5l4.5 5.5q3.33-1.13 2.5 1.5l7.5 6.5 2.5.5 5.5 6.5 9.5 6.5 2.5 3.5q3.33 1.13 2.5-1.5l3.5-4.5 2.5-1.5 1.5-2.5 5.5-2-1.5-2 .5-1.5-3-16-2-3 1-3-1-3-1-2v-2l-2-25-2-7 1-11-1-3 2-56 4-27 4.5-6.5Z"/><path fill="#FEFBF8" opacity=".843" d="m411.5 191 1.5 1.5.5 3.5-2-5ZM449 275l4.5 2v1l-5.5 1 1-4ZM447.5 283l-.5 1.5q1.13 3.33-1.5 2.5v1l1.5.5-1.5.5q-3.25-1.75.5-3.5l1.5-2.5ZM435.5 296l.5 3.5h-1l-.5-1.5-3 4 1-4 3-2ZM3.5 308H6q-1.87 4.8 1.5 4v1l-2-1-.5 3-2-1.5 2-4.5-1.5-1ZM22.5 308l.5 1.5-1 2 1 3h-1l-1.5-2.5-1.5 1.5h-1q-1.67-4.81 2.5-3.5l2-2ZM27 309q3.67-1.35 2 4.5l-1.5-.5-1.5-1.5 1-2.5ZM423.5 309l-.5 1.5-1.5 2.5-3.5-1.5 1.5.5 4-3ZM418.5 314l-.5 1.5q1.25 3.75-2.5 2.5l-1.5.5 3-1.5 1.5-3ZM17.5 316l2.5 4-3.5 3v2q-4.38-1.5-3.5 1.5h-1l-.5-1.5-2.5 1.5 2-3 1.5.5 1.5-1.5 3.5-6.5ZM7.5 317q3.33-1.12 2.5 1.5l-1.5-.5-4 2 1-2 2-1ZM8.5 330l-.5 1.5 1 2-3.5.5v-1l1.5-1.5 1.5-1.5ZM396.5 342l-1 4q-3.5-2 1-4ZM371.5 378l-1 4q-3.5-2 1-4ZM355.5 400l.5 1.5-4 3 3.5-4.5ZM349.5 409l-1 4q-3.5-2 1-4ZM180.5 472l.5 6.5h-1l-1-4 1.5-2.5Z"/><path fill="#EABDA8" opacity=".212" d="m206.5 60 9.5 3.5-1.5.5-7-3-6.5 5.5 5.5-6.5ZM195.5 70l-1 2-6 4 2-3 5-3ZM253.5 76l9.5 3.5-1.5.5-8-4ZM265.5 80l5.5 2.5-1.5-.5-4-2ZM177.5 82l-3 4 3-4ZM272.5 82l6.5 2.5-1.5.5-5-3ZM167.5 89l-2 3-3 2 2-3 3-2ZM149 101l2 .5-7.5 5.5 2-3 3.5-1v-2ZM356.5 110l6.5 2.5-1.5.5-5-3ZM366.5 113l13 1 4.5 2-.5 3-5-3-11-1-1-2ZM239.5 119l22.5.5-22.5.5v-1ZM225.5 121l3.5.5-8.5 1.5v-1l5-1ZM278.5 122l7.5 1.5-2.5.5-5-1v-1ZM294.5 126l6.5 2.5-2.5.5-4-3ZM110.5 128l.5 2-3.5 2 3-4ZM386.5 128l2.5 4.5-2-1-.5-3.5ZM215.5 130l1.5 3.5 1 32h-1l-1.5-35.5ZM105.5 132l-1 2-3 2 2-3 2-1ZM388.5 134l3.5 6.5h-1l-2.5-6.5ZM187.5 135l-1 2q-15.28 7.22-26 19l6-7 21-14ZM314.5 135l4.5 2.5-1.5.5-3-3ZM91.5 141l1.5.5-7.5 5.5 2-3 4-3ZM355.5 146l-3 4 3-4ZM82.5 147l1.5.5q-4.25 2.25.5 4.5l9.5 7.5-3-1 2 4.5-2.5-1-1.5 3.5.5 1.5-1.5-.5 2 3-1.5 3.5-5.5-3-1-4-4 1.5-.5 7.5-.5-10.5 2-3-1-2 1-3h-2l5.5-9.5ZM394.5 148l2.5 5.5h-1l-1.5-5.5ZM197.5 153l.5 10.5h-1l.5-10.5ZM158.5 156l.5 1.5-17.5 20.5.5-1.5 16.5-20.5ZM343.5 158l2.5.5-4 2-1.5 2.5-7.5 5-1.5 3-2.5 1.5-1.5 2.5-7.5 5-2.5 4-9.5 7.5-1.5 1.5-6.5 5.5 32-28.5 3.5-5 8-7ZM398.5 158l3.5 6.5-2 .5-1.5-7ZM402.5 168l3.5 6.5-2-1-1.5-5.5ZM297.5 174l-5 6 5-6ZM218.5 178l.5 9.5h-1l.5-9.5ZM140.5 179l.5 1.5-1 2.5-2 1.5-3.5 7.5q-3.25-1.75.5-3.5l5.5-9.5ZM76.5 183l.5 6.5h-1l.5-6.5ZM75.5 193l.5 7.5h-1l.5-7.5ZM219.5 195l.5 7.5h-1l.5-7.5ZM140.5 196l3 4-3-4ZM275.5 196l-6 7 6-7ZM371.5 197l2.5 5.5h-1l-1.5-5.5ZM414.5 198l3.5 6.5-2 .5-1.5-7ZM295.5 202l-8 9-.5-1.5 8.5-7.5ZM74.5 204l.5 6.5h-1l.5-6.5ZM220.5 204l1.5 22 3 .5-4 .5-.5-23ZM151.5 206l5.5 4.5-4.5-3.5-1-1ZM264.5 208l-4 5 4-5ZM125 211h2.5l22.5 17.5-1.5-.5-7.5-4-1.5-2-7.5-5-1.5-2-5.5-2-.5 3-.5-2.5 1-2.5ZM158.5 211l5.5 4.5-1.5.5-4-5ZM285.5 211l.5 1.5-8.5 7.5 8-9ZM420.5 212l2.5 4.5-2 .5-.5-5ZM73.5 214l.5 8.5h-1l.5-8.5ZM123.5 217l.5 4.5-2.5 7.5-.5-3.5 2.5-8.5ZM165.5 217l5.5 4.5-1.5-.5-4-4ZM275.5 220l.5 1.5-8.5 7.5 8-9ZM423.5 220l3.5 6.5-2 .5-1.5-7ZM380.5 225l1.5 9.5h-1l-.5-9.5ZM176.5 226l4 5-4-5ZM151.5 229l36.5 23.5-1.5-.5-28.5-16-1.5-2-5.5-3 .5-2ZM72.5 230l.5 7.5h-1l.5-7.5ZM264.5 230l.5 1.5-4 3-1.5 1.5-5.5 5.5 2.5 2.5 8.5 7.5 1 2-2-1-6.5-7.5-4.5-3.5 11.5-11.5ZM429.5 234l2.5 7.5h-1l-1.5-7.5ZM119.5 239l.5 22.5h-1l.5-22.5ZM432.5 243l3.5 7q-3.33 1.31-2-3.5l-1.5-3.5ZM70.5 251l.5 7.5-2.5 20.5-.5-9.5 2.5-18.5ZM435.5 251l6 9 13 2 5 3 3-1 13.5 3.5-.5 1.5 2-1 1.5 5-3.5 2h-2q-4.38 1.5-3.5-1.5l-2.5 1.5-2 1-4-1h-2q-4.38-1.5-3.5 1.5h-1l-2-1.5-.5 2-3.5-2-1 3.5v2l-1 3 1 2h-1l-.5-1.5-1.5 2.5 2 1-2 .5-2.5 5-3 2-1-2-.5 2.5-1.5 1.5-2.5.5 1 2h-1l-1.5-1.5-1.5 3.5v2.5q-3.75-1.5-3 1.5l-1.5 3.5h-2l-5.5 3.5 2 1-4 2-1.5 1.5-3.5 4.5.5 1.5-1.5-.5-8.5 12.5-1.5-.5 3-1.5 2-6h2l2-4.5 7-10.5 2-.5-.5-1.5 2.5-1.5.5-2.5 3.5-3v-3h2v-2.5l2-3.5 3-1.5q-1.12-3.33 1.5-2.5l2-4 2.5-1.5-.5-1.5 2.5-1.5.5-2.5 1.5-.5-.5-1.5 2.5-.5 1.5-1.5 4.5-9-12-6.5 1-2-3.5-6.5ZM321.5 254l17.5.5-17.5.5v-1ZM355.5 254l27.5.5-27.5.5v-1ZM120.5 266l1.5 5-2-.5v-2l.5-2.5ZM141.5 266l4.5.5-8.5 1.5v-1l4-1ZM271 271l55 1.5-35.5.5-18-1-1.5.5V271ZM328.5 273h20l.5 1.5-1.5-.5h-19v-1ZM350 273l31 1-.5 3-.5-2h-29.5l-.5-2ZM181.5 276l2.5.5-10.5 2.5v-1l8-2ZM159.5 281l3.5.5-6.5 1.5v-1l3-1ZM67.5 282l.5 2.5q-7.82 7.86-21 9.5 1.31 3.33-3.5 2l-9.5 8.5.5 1.5h12l6-3 15-1v1l-2 1-3 1q-14.97.53-25 6l-2-1-2 4-4 2-.5-2.5q1.67-5.85-2-4.5l-1 4 2 .5-1.5 3.5-2 1 .5-1.5q1.13-3.33-1.5-2.5l.5-1.5 2-7 1-2.5 3-.5-.5-1.5 2 1v-2l1.5.5 1.5-2.5 2.5-.5 2.5-3.5 2.5-.5-.5-1.5 2-1 1 2 .5-3q4.05-3.82 13.5-3l2-2h2l4.5-1 .5-2ZM154.5 282l-1 2-7 1v-1l8-2ZM265.5 284l-4.5 5.5-1.5 1.5-1 2 2.5 1.5-1.5.5-2.5-3.5 8.5-7.5ZM141.5 285l3.5.5-15.5 3.5-2.5 2.5 1 5h-1l-2-7.5 16.5-4ZM5.5 292l.5 6-2-.5 1.5-5.5ZM201.5 295l3.5 4.5h-1l-2.5-4.5ZM128.5 298l8.5 17.5-2-1-6.5-16.5ZM5.5 299l.5 3.5v4l1 3H6L4.5 308l-.5-2.5-1-2 2.5-4.5ZM373.5 299l.5 1.5-2.5 4.5-.5-1.5 2.5-4.5ZM245.5 300l35.5 45.5-3-2-29.5-38.5-1.5-1.5-2.5-1.5-2 1v-1l3-2ZM266.5 300l15 16-15-16ZM69.5 303l5 6-1.5-1.5-3.5-4.5ZM228.5 306l4.5.5-8.5 1.5v-1l4-1ZM370.5 306l.5 1.5-3.5 5.5-.5-1.5 3.5-5.5Z"/><path fill="#EABDA8" opacity=".212" d="M3 309q3-1.25 2 2.5l3 1.5-2 4.5.5 2.5 1-2 .5 3h2l2-4.5h1l-2 4 3-1-6 7 1 2-3.5 4.5-1.5-.5v-2l1-7-2-4 2-7H3V309ZM15.5 309l1.5.5-3 2-1.5 2.5.5-1.5 2.5-3.5ZM213.5 310l.5 4.5-2.5 7.5-.5-3.5 2.5-8.5ZM16.5 311l1.5 4.5-2.5 3.5-1.5-4.5h1l.5 2.5 1-6ZM76.5 311l8 9-3.5-2-4.5-7ZM19.5 312l2.5 1 1 2.5-3 2 1-3-1.5-2.5ZM366.5 314l-.5 1.5-2.5 4.5-.5-1.5 3.5-4.5ZM137.5 317l19 25 1.5 1.5 11 9 1.5 1.5 8.5 6.5-1.5.5-13.5-10-1.5-3-8.5-7.5-16.5-23.5ZM85.5 321l7 8-7-8ZM362.5 321l-.5 1.5-3.5 4.5.5-1.5 2-3 1.5-1.5ZM289.5 324l5.5 6.5-5-4-.5-2.5ZM209.5 328l.5 4.5-3.5 11.5-.5-2.5 3.5-13.5ZM93.5 330l8 9-8-9ZM355.5 330l.5 1.5-11.5 12.5 5.5-6.5 2-3 3.5-4.5ZM295.5 332l4 5-4-5ZM400 336l2 .5-4.5 5.5-1.5-.5 3-1.5 1-4ZM304.5 343l7.5 9.5-3-2-4.5-7.5ZM396.5 343l-4 5 4-5ZM106.5 344l6.5 7.5-2-1-4.5-6.5ZM342.5 345l-5 6 5-6ZM391 349l2 .5-5 4 3-4.5ZM204.5 351l.5 4.5-2.5 6.5-.5-2.5 2.5-8.5ZM285.5 351l11.5 13.5-1.5.5-10-14ZM335.5 351l-3 4 3-4ZM115.5 354l7 8-2.5-1-4.5-7ZM312.5 354l3.5 4.5-3-2-.5-2.5ZM330.5 355l-2 3-4 3-.5-2 6.5-4ZM387 355l2 .5-8.5 10.5-.5-2 3-1.5-.5-1.5 1.5-1.5 1-2.5q3 1 2-2ZM316.5 360l3 3 1-1 2-1-1 2-3.5 1-1.5-4ZM124.5 364l6 7-2.5-1-3.5-6ZM297.5 366q5.25 1.5 4.5 7l-2-.5-1-3-1.5-3.5ZM131.5 372l1.5 1.5 19 21-3-2-2.5-3.5-1.5-1.5-13.5-15.5ZM203.5 373l5.5 2.5-1.5-.5-4-2ZM297.5 373l1.5.5-5.5 2.5v-1l4-2ZM374.5 373l1.5.5-1 2.5-3.5 2 1.5-2.5 1.5-2.5ZM288.5 376l2.5.5-8.5 2.5v-1l6-2ZM215.5 377l5.5 1.5-3.5.5-2-2ZM371.5 379l-3 4-.5-2 3.5-2ZM247.5 382l8.5.5-8.5.5v-1ZM367.5 384l-.5 1.5-3.5 4.5-.5-2 3-1.5 1.5-2.5ZM153.5 396l6.5 7.5-2-1-4.5-6.5ZM162.5 406l8.5 8.5v10l-2 19v2l1 21v2l-1 2 .5 2.5 1.5.5-1 2 4-3-1-3h2l8-34 3.5-6.5h2l4 1 21-3-1 2h-11l-14.5 3.5-2 8v2l-4 15v2l-1 6v2l-1 8 2 5-1 2 1.5-.5 2.5 1.5-1 3.5 18 1.5-42.5.5v-1l6.5-4.5-1-3 1-3-1-3v-2l2-11 1-37 3-9-1-2.5-3-1.5-3.5-5.5ZM345.5 416l.5 1.5-4.5 1.5v-1l4-2ZM331.5 418l.5 2-30.5 2v-1l30-3ZM278.5 422l9.5.5-24.5 2.5 1-2 14-1ZM251.5 424l6.5.5-6.5.5v-1ZM238.5 425l11.5.5-18.5 1.5v-1l7-1ZM227.5 426l1 2-12.5-.5 11.5-1.5Z"/><path fill="#C7642B" opacity=".973" d="m210.5 62 60 21h2l97.5 32-1.5 2-39 28-20-13-27-10-21-3h-22l-3 1-22.5 4-3.5-62ZM203.5 65l.5 1.5-5 27-2 37.5q-22.9 9.11-39 25-14.72 15.11-25.5 35L82 149.5l29-19.5q-1.25-3 2.5-2l1.5-3 8.5-4 80-56ZM381.5 122q3.75-1.25 2.5 2.5L438 260l-55-5-1-25.5-8-28q-10.78-25.46-28-43.5l-2-.5 37.5-35.5ZM78 167l34 30 1.5 2 11.5 10.5-6 30v22l2 8-3.5 2.5-21 4-28.5 9 2-13.5L78 167ZM381 274l61 1-96.5 139q-10.93-27.07-26.5-49.5 19.46-12.04 34-29l3-5.5q3 1.25 2-2.5l13-20 8-22 2-11.5ZM123.5 289q2.62-.83 1.5 2.5 11.98 34.52 36.5 56.5l2.5 1.5 1.5 1.5 16.5 12.5-11.5 50.5-8.5-10-2-1.5-27-30.5-2-1.5-27.5-30.5-1.5-1.5L69 301l54.5-12ZM199.5 372l18 7 15 3 23 1 30-4 17-7 37.5 45.5L187.5 430l-.5-2.5 12.5-55.5Z"/></svg>